<svg xmlns="http://www.w3.org/2000/svg" xmlns:xlink="http://www.w3.org/1999/xlink" viewBox="0 0 143.45 148.38"><defs><style>.cls-1{fill:none;}.cls-2{fill:#00bce7;opacity:0.1;}.cls-3{fill:#474c55;}.cls-4{fill:#fff;}.cls-5{clip-path:url(#clip-path);}</style><clipPath id="clip-path"><circle class="cls-1" cx="71.54" cy="71.54" r="54.61"/></clipPath></defs><title>ancillary_data_maintenance</title><g id="Layer_2" data-name="Layer 2"><g id="icon_art" data-name="icon art"><circle class="cls-2" cx="71.54" cy="71.54" r="71.54"/><circle class="cls-3" cx="71.54" cy="71.54" r="54.61"/><path class="cls-4" d="M91.57,49.37H81.79a.62.62,0,0,0,0,1.23h9.78a.62.62,0,0,0,0-1.23Z"/><path class="cls-4" d="M91.57,45.71H81.79a.61.61,0,0,0,0,1.22h9.78a.61.61,0,0,0,0-1.22Z"/><path class="cls-4" d="M91.57,42H81.79a.61.61,0,0,0,0,1.22h9.78a.61.61,0,0,0,0-1.22Z"/><path class="cls-4" d="M91.57,38.38H81.79a.61.61,0,0,0,0,1.22h9.78a.61.61,0,0,0,0-1.22Z"/><path class="cls-4" d="M81.79,35.93h5.44a.61.61,0,0,0,.61-.61.58.58,0,0,0-.61-.61H81.79a.61.61,0,0,0,0,1.22Z"/><path class="cls-4" d="M91,29.82H78.68a2.43,2.43,0,0,0-2.39,2.39V53.1a2.38,2.38,0,0,0,2.39,2.38h16a2.38,2.38,0,0,0,2.39-2.38V35.87ZM94.62,53H78.74V32.27h11v2.38a2.45,2.45,0,0,0,2.45,2.44h2.44v2.63h0Z"/><path class="cls-4" d="M63.22,62.67H53.44a.61.61,0,0,0,0,1.22h9.78a.61.61,0,0,0,0-1.22Z"/><path class="cls-4" d="M63.22,59H53.44a.61.61,0,0,0,0,1.22h9.78a.61.61,0,0,0,0-1.22Z"/><path class="cls-4" d="M63.22,55.34H53.44a.61.61,0,0,0,0,1.22h9.78a.61.61,0,0,0,0-1.22Z"/><path class="cls-4" d="M63.22,51.67H53.44a.61.61,0,0,0,0,1.22h9.78a.61.61,0,0,0,0-1.22Z"/><path class="cls-4" d="M53.44,49.23h5.44a.61.61,0,0,0,.61-.61.57.57,0,0,0-.61-.61H53.44a.61.61,0,0,0,0,1.22Z"/><path class="cls-4" d="M62.67,43.12H50.33a2.43,2.43,0,0,0-2.39,2.38V66.4a2.39,2.39,0,0,0,2.39,2.38h16a2.39,2.39,0,0,0,2.39-2.38V49.17Zm3.6,23.21H50.39V45.56h11v2.38a2.45,2.45,0,0,0,2.44,2.45h2.44V53h0Z"/><path class="cls-4" d="M46.4,91H36.63a.61.61,0,0,0,0,1.22H46.4a.61.61,0,1,0,0-1.22Z"/><path class="cls-4" d="M46.4,87.35H36.63a.61.61,0,1,0,0,1.22H46.4a.61.61,0,1,0,0-1.22Z"/><path class="cls-4" d="M46.4,83.69H36.63a.61.61,0,1,0,0,1.22H46.4a.61.61,0,1,0,0-1.22Z"/><path class="cls-4" d="M46.4,80H36.63a.61.61,0,0,0,0,1.22H46.4a.61.61,0,1,0,0-1.22Z"/><path class="cls-4" d="M36.63,77.58h5.44a.62.62,0,0,0,.61-.62.58.58,0,0,0-.61-.61H36.63a.62.62,0,0,0,0,1.23Z"/><path class="cls-4" d="M45.86,71.47H33.51a2.43,2.43,0,0,0-2.38,2.38V94.74a2.39,2.39,0,0,0,2.38,2.39h16a2.39,2.39,0,0,0,2.38-2.39V77.52Zm3.6,23.21H33.58V73.91h11v2.38A2.45,2.45,0,0,0,47,78.74h2.44v2.63h0Z"/><g class="cls-5"><path class="cls-4" d="M95.72,147.25l0,0a6.43,6.43,0,0,1-4.75-6.2c-.18-3.68-1.61-5.56-5-6.44a7.91,7.91,0,0,0-2.2-.39c-1.47,0-3,.68-5.83,4.05a6.23,6.23,0,0,1-5,2.29,7,7,0,0,1-3.7-1.06l-.49-.31,0-.17a6.43,6.43,0,0,1-1.38-9c2-2.87,1.91-5.44-.22-8.08-1.42-1.75-2.46-2.58-4.55-2.58a16,16,0,0,0-4,.67,6.7,6.7,0,0,1-1.5.17A6.58,6.58,0,0,1,51,116.06a1.26,1.26,0,0,1-.44-.84,6.52,6.52,0,0,1,4.12-8c3.22-1.07,4.59-3.08,4.42-6.49-.23-3.07-1.11-4.68-6-6.59a6.39,6.39,0,0,1-3.83-7.83l0-.29,0-.09a6.43,6.43,0,0,1,6.21-4.46,6.76,6.76,0,0,1,2.05.32,8.66,8.66,0,0,0,2.73.52c1.89,0,3.37-1,4.79-3.21,1.81-2.4,2.3-4-.79-8.86A6.54,6.54,0,0,1,66,61.46l.28-.22a7,7,0,0,1,4.1-1.38,6.15,6.15,0,0,1,5.07,2.69c1.52,2.1,3,3,4.91,3a8.34,8.34,0,0,0,2.89-.6c2.16-.71,4-1.75,4.25-7.54a6.31,6.31,0,0,1,6.36-6.11h.1l.31,0a6.48,6.48,0,0,1,4.47,1.86,6.28,6.28,0,0,1,1.9,4.55c.18,3.66,1.61,5.53,5,6.41a7.91,7.91,0,0,0,2.2.39c1.47,0,3-.67,5.83-4a6.46,6.46,0,0,1,5-2.42,5.91,5.91,0,0,1,3.67,1.24l.41.32v.1a6.4,6.4,0,0,1,2.51,4.1,6.48,6.48,0,0,1-1.13,4.86c-2,2.88-1.91,5.45.22,8.08,1.42,1.76,2.46,2.59,4.54,2.59a16,16,0,0,0,4-.67,6.64,6.64,0,0,1,1.5-.17,6.54,6.54,0,0,1,6.13,4.16,1.24,1.24,0,0,1,.45.83,6.54,6.54,0,0,1-4.12,8c-3.22,1.07-4.59,3.07-4.42,6.48.23,3.08,1.11,4.68,6,6.6a6.39,6.39,0,0,1,3.83,7.82l0,.3,0,.09a6.42,6.42,0,0,1-6.21,4.45h0a6.84,6.84,0,0,1-2-.31,8.33,8.33,0,0,0-2.72-.53c-1.9,0-3.37,1-4.79,3.22-1.81,2.4-2.3,4,.79,8.86a6.53,6.53,0,0,1-1.65,8.76l-.28.23a7.09,7.09,0,0,1-4.1,1.38,6.13,6.13,0,0,1-5.07-2.7c-1.53-2.09-3-3-4.92-3a8.34,8.34,0,0,0-2.88.6c-2.16.7-4,1.74-4.25,7.53a6.33,6.33,0,0,1-6.36,6.12h-.06Zm.52-65.79A18,18,0,0,0,78.7,94.55,17.53,17.53,0,0,0,80.28,108a18.1,18.1,0,0,0,10.92,8.76,19.22,19.22,0,0,0,4.73.6,17.8,17.8,0,0,0,17.5-13.07C116,94.46,110.37,84.47,101,82.06A19.41,19.41,0,0,0,96.24,81.46Z"/><path class="cls-3" d="M93.85,52.26l.3,0a5.49,5.49,0,0,1,5.54,5.47c.19,4,1.78,6.3,5.65,7.32a8.75,8.75,0,0,0,2.44.42c2,0,3.75-1.11,6.53-4.37a5.56,5.56,0,0,1,4.35-2.09,5,5,0,0,1,3.1,1,.31.31,0,0,0,.27.34,5.52,5.52,0,0,1,1.32,7.78c-2.16,3.13-2.18,6.19.26,9.2,1.49,1.84,2.77,2.93,5.26,2.93a16.83,16.83,0,0,0,4.29-.71,6,6,0,0,1,1.25-.13,5.6,5.6,0,0,1,5.38,3.89.29.29,0,0,1,.27.33,5.56,5.56,0,0,1-3.48,7c-3.49,1.16-5.25,3.42-5.06,7.42.25,3.39,1.27,5.33,6.56,7.41a5.5,5.5,0,0,1,3.26,6.77l0,.3a5.5,5.5,0,0,1-5.33,3.8,5.77,5.77,0,0,1-1.77-.27,9.23,9.23,0,0,0-3-.57c-2.26,0-4,1.19-5.58,3.65-2.13,2.83-2.35,4.94.8,9.86a5.61,5.61,0,0,1-1.4,7.5l-.33.27a6.13,6.13,0,0,1-3.52,1.17,5.19,5.19,0,0,1-4.31-2.3c-1.67-2.3-3.46-3.43-5.68-3.43a9.15,9.15,0,0,0-3.2.66c-2.85.92-4.56,2.58-4.86,8.35a5.42,5.42,0,0,1-5.44,5.24l-.3,0-1.51-.16a5.49,5.49,0,0,1-4-5.31c-.19-4-1.78-6.31-5.65-7.32a8.55,8.55,0,0,0-2.44-.43c-2,0-3.75,1.12-6.53,4.37a5.33,5.33,0,0,1-4.25,2,5.91,5.91,0,0,1-3.2-.92.3.3,0,0,0-.27-.33,5.51,5.51,0,0,1-1.32-7.78c2.16-3.14,2.18-6.19-.26-9.2-1.49-1.84-2.77-2.93-5.27-2.93a16.74,16.74,0,0,0-4.28.7,6,6,0,0,1-1.25.14,5.61,5.61,0,0,1-5.38-3.89.29.29,0,0,1-.27-.34,5.57,5.57,0,0,1,3.48-7c3.48-1.16,5.25-3.42,5.06-7.41-.26-3.39-1.27-5.33-6.56-7.42A5.49,5.49,0,0,1,50.2,86.5l0-.3a5.49,5.49,0,0,1,5.33-3.81,6.09,6.09,0,0,1,1.77.27,9.23,9.23,0,0,0,3,.57c2.26,0,4-1.19,5.58-3.64,2.13-2.83,2.35-5-.8-9.87a5.59,5.59,0,0,1,1.4-7.49l.33-.27a6.13,6.13,0,0,1,3.52-1.17,5.19,5.19,0,0,1,4.31,2.3c1.67,2.29,3.46,3.43,5.67,3.43a9.38,9.38,0,0,0,3.21-.66c2.85-.93,4.55-2.58,4.86-8.36a5.42,5.42,0,0,1,5.44-5.24m2.09,66.06c8.41,0,16.23-5.31,18.39-13.76,2.6-10.13-3-20.8-13.13-23.4a20.14,20.14,0,0,0-5-.63,18.93,18.93,0,0,0-5.3,37.16,20.39,20.39,0,0,0,5,.63m-2-67.91h-.1a7.24,7.24,0,0,0-7.29,7c-.28,5.19-1.66,6-3.57,6.65h0l0,0a7.44,7.44,0,0,1-2.56.54c-1,0-2.45-.31-4.16-2.66a7.09,7.09,0,0,0-5.82-3.07,8,8,0,0,0-4.59,1.51l0,0,0,0-.28.23a7.47,7.47,0,0,0-1.88,9.94l0,0v0c2.95,4.6,2.33,5.82.88,7.74l0,.06,0,.06c-1.57,2.45-2.91,2.78-4,2.78a7.56,7.56,0,0,1-2.4-.46h0a7.65,7.65,0,0,0-2.32-.36,7.35,7.35,0,0,0-7.1,5.11l-.06.18,0,.18v.12a7.35,7.35,0,0,0,.45,5.22,7.08,7.08,0,0,0,4,3.67c4.81,1.9,5.16,3.37,5.34,5.78.14,3-1,4.6-3.79,5.54a7.21,7.21,0,0,0-4.23,3.7,7.42,7.42,0,0,0-.5,5.39,2.16,2.16,0,0,0,.12.45,2,2,0,0,0,.45.72,7.5,7.5,0,0,0,6.92,4.56,7.65,7.65,0,0,0,1.65-.18h.09a14.72,14.72,0,0,1,3.79-.65c1.58,0,2.4.49,3.83,2.25,1.86,2.3,1.91,4.45.17,7a7.42,7.42,0,0,0-1.28,5.54,7.33,7.33,0,0,0,2.45,4.35l0,.23,1,.62a7.85,7.85,0,0,0,4.2,1.21,7.16,7.16,0,0,0,5.68-2.65c2.63-3.07,3.9-3.69,5.1-3.69a6.94,6.94,0,0,1,1.92.35h0c2.94.78,4.1,2.29,4.26,5.59a7.38,7.38,0,0,0,5.46,7.06l.12,0h.11l.76.08.75.08.31,0h.2a7.26,7.26,0,0,0,7.29-7c.28-5.18,1.66-6,3.57-6.64l0,0h0a7.44,7.44,0,0,1,2.55-.54c1,0,2.46.3,4.17,2.66a7.09,7.09,0,0,0,5.82,3.07,8,8,0,0,0,4.59-1.51l0,0,0,0,.29-.23a7.46,7.46,0,0,0,1.87-9.93v0l0,0c-2.94-4.6-2.32-5.82-.87-7.75l0,0,0-.06c1.57-2.46,2.91-2.79,4-2.79a7.5,7.5,0,0,1,2.39.47h.06a8,8,0,0,0,2.32.35,7.34,7.34,0,0,0,7.1-5.11l.06-.17,0-.19v-.11a7.37,7.37,0,0,0-4.45-8.89c-4.81-1.9-5.16-3.37-5.35-5.78-.13-3,1-4.6,3.8-5.54a7.27,7.27,0,0,0,4.23-3.7,7.42,7.42,0,0,0,.51-5.37,2.13,2.13,0,0,0-.59-1.21,7.48,7.48,0,0,0-6.91-4.54,7.65,7.65,0,0,0-1.65.18h-.09a15.07,15.07,0,0,1-3.8.64c-1.57,0-2.39-.48-3.82-2.24-1.86-2.3-1.91-4.45-.17-7a7.41,7.41,0,0,0,1.28-5.54,7.28,7.28,0,0,0-2.45-4.34v-.12l-.81-.63a6.86,6.86,0,0,0-4.25-1.44A7.42,7.42,0,0,0,112.88,60c-2.63,3.07-3.9,3.69-5.1,3.69a6.86,6.86,0,0,1-1.92-.34h0c-2.94-.77-4.1-2.28-4.26-5.56a7.21,7.21,0,0,0-2.18-5.16,7.42,7.42,0,0,0-5.11-2.13l-.22,0Zm-2.51,65.48a17.16,17.16,0,0,1-10.34-8.31,16.67,16.67,0,0,1-1.5-12.76A17.13,17.13,0,0,1,96.24,82.39a18.56,18.56,0,0,1,4.5.57c8.9,2.28,14.19,11.76,11.79,21.13a16.88,16.88,0,0,1-16.59,12.37,18,18,0,0,1-4.51-.57Z"/></g></g></g></svg>