<svg xmlns="http://www.w3.org/2000/svg" viewBox="0 0 143.08 143.08"><defs><style>.cls-1{fill:#00bce7;opacity:0.1;}.cls-2{fill:#fbb040;}.cls-3{fill:#fff;}</style></defs><title>customer_manager</title><g id="Layer_2" data-name="Layer 2"><g id="icon_art" data-name="icon art"><circle class="cls-1" cx="71.54" cy="71.54" r="71.54"/><circle class="cls-2" cx="71.54" cy="71.54" r="54.61"/><path class="cls-3" d="M52.27,98.4h0a7,7,0,0,1-7-7h0V66.76h0A7,7,0,1,1,59.23,66c0,.24,0,.49,0,.73V91.43h0A7,7,0,0,1,52.27,98.4Zm0-34.68h0a3.12,3.12,0,0,0-3.12,3.12h0V91.51h0a3.12,3.12,0,0,0,6.22.49,2,2,0,0,0,0-.49V66.76h0a3.12,3.12,0,0,0-3.1-3.1Z"/><path class="cls-3" d="M42.5,92.72h0a6.65,6.65,0,0,1-6.65-6.65h0V73.78h0a6.65,6.65,0,0,1,13.3,0h0V86.05h0a6.65,6.65,0,0,1-6.63,6.67ZM42.5,71h0a2.79,2.79,0,0,0-2.79,2.8h0V86.07h0a2.8,2.8,0,1,0,5.59,0V73.78h0A2.8,2.8,0,0,0,42.5,71h0Z"/><path id="path-1" class="cls-3" d="M43.43,71H41.79a2.51,2.51,0,0,1-2.49-2.5v-4h0a3.33,3.33,0,0,1,6.65,0v4h0A2.5,2.5,0,0,1,43.43,71Z"/><path class="cls-3" d="M42.6,65h0a1.92,1.92,0,0,1-1.93-1.93h0a28.51,28.51,0,0,1,5-16h0a1.93,1.93,0,0,1,3.2,2.16h0A24.6,24.6,0,0,0,44.62,63.1h0A1.92,1.92,0,0,1,42.7,65Z"/><path class="cls-3" d="M47.22,50h0a1.94,1.94,0,0,1-1.95-1.9,1.87,1.87,0,0,1,0-.34c0-.17,3-16.78,25.35-16.78h0a1.93,1.93,0,1,1,0,3.85c-13.48,0-18.73,6.77-20.58,10.74h0a5.06,5.06,0,0,0,2.12-1.39h0a24.52,24.52,0,0,1,18.5-7.5h0a1.93,1.93,0,1,1,0,3.86h0A20.67,20.67,0,0,0,55.05,46.8h0a8.89,8.89,0,0,1-5,2.74L47.57,50Z"/><path class="cls-3" d="M89.11,98.4h0a7,7,0,0,1-7-7V66.76h0A7,7,0,1,1,96.07,66c0,.24,0,.49,0,.73V91.43h0A7,7,0,0,1,89.11,98.4Zm0-34.68h0A3.12,3.12,0,0,0,86,66.84V91.51h0a3.12,3.12,0,0,0,6.23.49,4,4,0,0,0,0-.49V66.76h0a3.12,3.12,0,0,0-3.11-3.1Z"/><path class="cls-3" d="M98.88,92.72h0a6.64,6.64,0,0,1-6.64-6.65h0V73.78h0a6.65,6.65,0,1,1,13.29,0V86.05h0a6.65,6.65,0,0,1-6.63,6.67Zm0-21.72h0a2.79,2.79,0,0,0-2.79,2.8h0V86.07h0a2.8,2.8,0,1,0,5.59,0V73.78h0a2.8,2.8,0,0,0-2.8-2.8h0Z"/><path id="path-1-2" data-name="path-1" class="cls-3" d="M99.6,71H98a2.51,2.51,0,0,1-2.49-2.5v-4h0a3.33,3.33,0,0,1,6.65,0v4h0A2.5,2.5,0,0,1,99.6,71Z"/><path class="cls-3" d="M98.79,65h0a1.92,1.92,0,0,1-1.93-1.93h0a24.6,24.6,0,0,0-4.22-13.83h0a1.93,1.93,0,0,1,2.67-2.78,1.87,1.87,0,0,1,.43.62h0a28.48,28.48,0,0,1,4.9,16h0A1.93,1.93,0,0,1,98.79,65Z"/><path class="cls-3" d="M94.16,50l-.34,0-2.53-.44h0a8.87,8.87,0,0,1-5-2.74h0a20.68,20.68,0,0,0-15.65-6.24h0a1.93,1.93,0,0,1,0-3.86h0a24.5,24.5,0,0,1,18.48,7.48h0a5,5,0,0,0,2.14,1.39c-1.81-4-6.94-10.74-20.62-10.74h0a1.93,1.93,0,0,1,0-3.85c11.56,0,17.85,4.49,21.06,8.27h0a19,19,0,0,1,4.3,8.61h0A1.91,1.91,0,0,1,94.37,50Z"/><path class="cls-3" d="M90.14,107.59H78.75a1.93,1.93,0,1,1,0-3.85H90.14A6.82,6.82,0,0,0,97,96.92V90.79h0a1.93,1.93,0,0,1,3.85,0h0V97h0a10.67,10.67,0,0,1-10.67,10.57Z"/><path class="cls-3" d="M75.45,111H65.93a5.23,5.23,0,0,1,0-10.45h9.54a5.23,5.23,0,0,1,0,10.45Zm-9.54-6.59h0a1.37,1.37,0,0,0,0,2.73h9.54a1.37,1.37,0,1,0,0-2.73H65.91Z"/></g></g></svg>