<?xml version="1.0" encoding="utf-8"?>
<!-- Generator: Adobe Illustrator 22.0.1, SVG Export Plug-In . SVG Version: 6.00 Build 0)  -->
<svg version="1.1" id="Layer_1" xmlns="http://www.w3.org/2000/svg" xmlns:xlink="http://www.w3.org/1999/xlink" x="0px" y="0px"
	 viewBox="0 0 720 186.1" style="enable-background:new 0 0 720 186.1;" xml:space="preserve">
<style type="text/css">
	.st0{fill:#00B2E3;}
	.st1{fill:#FFFFFF;}
</style>
<g>
	<g>
		<g>
			<path d="M293.8,82l-33.2,78.9h-6.8L220.7,82h9.4l27.2,66.2L284.5,82H293.8z"/>
			<path d="M376.6,123.5h-64.1c0.8,18.7,11.4,31.1,29.2,31.1s27.7-10.2,27.7-10.2l4.3,6.3c0,0-9.9,11.9-32.8,11.9
				c-23,0-37.8-17-37.8-41.2c0-24.3,17.3-40.8,38.3-40.8c20.7,0,35.7,15.6,35.7,36.9C377.1,120.1,376.6,123.5,376.6,123.5z
				 M368.1,115.8c0-10.2-7.7-27.5-27.2-27.5c-19.6,0-27.5,16.5-28.1,27.5H368.1z"/>
			<path d="M435.8,90.5c-1.9-0.7-4.3-1.4-8.5-1.4c-7.7,0-12.2,5.3-13.6,7.1c-1.4,1.9-5.6,8.5-5.6,22.1v42.5h-8.8V82h8.8v14.8
				c2.9-10.7,11.6-16.2,20.1-16.2c5.1,0,8.5,1.2,8.5,1.2L435.8,90.5z"/>
			<path d="M486,160c0,0-4.3,2.5-11.9,2.5c-7.7,0-12.1-3.2-15-8.5c-2.7-5.3-2.9-11.1-2.9-23.8v-40h-11.9v-8h11.9V57.1h9v25.2h19.9v8
				h-20.1v45.2c0,8.7,1,19,11.6,19c5.1,0,8.5-2.2,8.5-2.2L486,160z"/>
			<path d="M509.9,61.2c-4.1,0-7.3-3.2-7.3-7.3s3.2-7.3,7.3-7.3s7.3,3.2,7.3,7.3S514,61.2,509.9,61.2z M514.4,160.9h-8.8V82h8.8
				V160.9z"/>
			<path d="M609.1,149c-2.9,3.4-11.1,13.6-32.3,13.6c-21.3,0-38.6-17-38.6-41.2c0-24.3,18.7-40.8,39.5-40.8
				c20.9,0,29.4,11.4,31.1,13.6l-5.6,6c-3.4-3.9-10.2-11.6-25.8-11.6c-15.8,0-29.8,12.8-29.8,32.3c0,19.6,12.2,33.7,30.1,33.7
				c17.9,0,26.4-11.6,26.4-11.6L609.1,149z"/>
			<path d="M695,123.5h-64.1c0.9,18.7,11.4,31.1,29.3,31.1c17.9,0,27.7-10.2,27.7-10.2l4.3,6.3c0,0-9.9,11.9-32.8,11.9
				c-23,0-37.8-17-37.8-41.2c0-24.3,17.3-40.8,38.3-40.8c20.7,0,35.7,15.6,35.7,36.9C695.5,120.1,695,123.5,695,123.5z M686.5,115.8
				c0-10.2-7.7-27.5-27.2-27.5c-19.6,0-27.5,16.5-28.1,27.5H686.5z"/>
		</g>
		<rect x="620.3" y="49.2" class="st0" width="78.9" height="8.8"/>
	</g>
	<g>
		<path class="st0" d="M104.4,176.6L104.4,176.6c-46.1,0-83.5-37.4-83.5-83.5v0c0-46.1,37.4-83.5,83.5-83.5h0
			c46.1,0,83.5,37.4,83.5,83.5v0C187.9,139.2,150.5,176.6,104.4,176.6z"/>
		<g>
			<path class="st1" d="M112.9,160H97L53.9,42.6h17.7l33,93.5L112.9,160z"/>
			<polygon class="st1" points="118.6,140.6 154.9,42.6 137.5,42.6 110.7,117.9 			"/>
		</g>
	</g>
</g>
</svg>
